/* XPM */
static char *cruxlogo[] = {
/* columns rows colors chars-per-pixel */
"48 68 228 2 ",
"   c None",
".  c #000000",
"X  c #000609",
"o  c #191407",
"O  c #00141F",
"+  c #060D10",
"@  c #382402",
"#  c #232518",
"$  c #001C2C",
"%  c #001F31",
"&  c #0F2B36",
"*  c #272617",
"=  c #5B3900",
"-  c #623C02",
";  c #6E4501",
":  c #767037",
">  c #5A5024",
",  c #012E45",
"<  c #00304C",
"1  c #003B59",
"2  c #003D60",
"3  c #004B77",
"4  c #004970",
"5  c #356B76",
"6  c #215465",
"7  c #5F5F43",
"8  c #727A57",
"9  c #5D7562",
"0  c #8C5B0B",
"q  c #AC6B02",
"w  c #A76702",
"e  c #B36E03",
"r  c #B87406",
"t  c #A56C16",
"y  c #AA7219",
"u  c #B77918",
"i  c #977932",
"p  c #A87B27",
"a  c #8E6019",
"s  c #C17C0D",
"d  c #827E4E",
"f  c #728B6F",
"g  c #BB8311",
"h  c #B2852F",
"j  c #C78306",
"k  c #D98C05",
"l  c #D79105",
"z  c #C4831B",
"x  c #CE8818",
"c  c #C88416",
"v  c #D28D1B",
"b  c #D8921C",
"n  c #C68B23",
"m  c #D49324",
"M  c #DA9623",
"N  c #DC9C2A",
"B  c #D69927",
"V  c #C89632",
"C  c #E39B24",
"Z  c #E89E26",
"A  c #E29F29",
"S  c #D9A429",
"D  c #D8A538",
"F  c #E3A32B",
"G  c #EAA52A",
"H  c #ECAA2D",
"J  c #E9A429",
"K  c #F1B12F",
"L  c #E4AB34",
"P  c #EBAE32",
"I  c #E0A532",
"U  c #EBB436",
"Y  c #F2B433",
"T  c #F5BA35",
"R  c #F5BD37",
"E  c #E6A114",
"W  c #FBC337",
"Q  c #F5C43D",
"!  c #FAC63A",
"~  c #FBCC3D",
"^  c #F6C037",
"/  c #8D8955",
"(  c #A99248",
")  c #B3A95C",
"_  c #929C6B",
"`  c #A4A164",
"'  c #D4AC45",
"]  c #E8BC4D",
"[  c #ECC547",
"{  c #F5C943",
"}  c #FBD242",
"|  c #FAD94C",
" . c #F0D856",
".. c #FDE04F",
"X. c #FDE354",
"o. c #FDE95C",
"O. c #CECC73",
"+. c #FFEF63",
"@. c #005383",
"#. c #015C96",
"$. c #00619C",
"%. c #006B9D",
"&. c #186689",
"*. c #0267A6",
"=. c #0573A8",
"-. c #1777AB",
";. c #0274BB",
":. c #0676B6",
">. c #006FB7",
",. c #296D85",
"<. c #407E8A",
"1. c #0076C2",
"2. c #007AC5",
"3. c #007EC9",
"4. c #087FC2",
"5. c #0A85B8",
"6. c #2983A7",
"7. c #3699B8",
"8. c #2C8BB1",
"9. c #3D8396",
"0. c #4A8E97",
"q. c #6EAAAE",
"w. c #69A59F",
"e. c #0082C2",
"r. c #0083CD",
"t. c #0889C9",
"y. c #0299CE",
"u. c #0086D1",
"i. c #008BD5",
"p. c #018FD8",
"a. c #0C8DD3",
"s. c #0294DC",
"d. c #019BDD",
"f. c #0893D5",
"g. c #1594D8",
"h. c #158FC6",
"j. c #309FC6",
"k. c #0AA4DA",
"l. c #10A3D7",
"z. c #29A2D3",
"x. c #3AA7D8",
"c. c #049CE3",
"v. c #099CE3",
"b. c #009FE8",
"n. c #0297E0",
"m. c #03A1E5",
"M. c #0BA1E7",
"N. c #01A3EB",
"B. c #0DA5EA",
"V. c #0CA8EA",
"C. c #11AAED",
"Z. c #17A6E8",
"A. c #00ABF4",
"S. c #01A9F4",
"D. c #14ADF1",
"F. c #1BAFF1",
"G. c #07B2FA",
"H. c #16B1F4",
"J. c #1AB3F6",
"K. c #1CB6F9",
"L. c #1EB9FC",
"P. c #16B6FA",
"I. c #24ADEC",
"U. c #23B5F5",
"Y. c #23BCFD",
"T. c #2ABEFD",
"R. c #2CB9F4",
"E. c #34BEFB",
"W. c #32B9F4",
"Q. c #2CB1EE",
"!. c #48A7DB",
"~. c #52B5DA",
"^. c #4FB9EC",
"/. c #6ABDE8",
"(. c #5CA5D4",
"). c #2CC1FE",
"_. c #2DC0F6",
"`. c #33C3FD",
"'. c #3BC5FC",
"]. c #3DC9FD",
"[. c #3AC3F6",
"{. c #72CDD7",
"}. c #43CCFE",
"|. c #48CAFB",
" X c #53CDFB",
".X c #4CD1FF",
"XX c #54D3FF",
"oX c #5AD6FF",
"OX c #54C8EA",
"+X c #69D2FD",
"@X c #78D7FC",
"#X c #6FC8EB",
"$X c #AEBAA9",
"%X c #9CBA8D",
"&X c #C5BC90",
"*X c #A7C795",
"=X c #DFCB98",
"-X c #86BDD8",
";X c #9BC7E1",
":X c #8CD9FA",
">X c #95D3F2",
",X c #AACDE2",
"<X c #B5D5E8",
"1X c #BCDAEC",
"2X c #B4D4E5",
"3X c #ACD7EF",
"4X c #A8E2FB",
"5X c #BAE5FA",
"6X c #ACC1C0",
"7X c #DAE3DF",
"8X c #C3DFF0",
"9X c #C0DDEF",
"0X c #CCE6F6",
"qX c #C3E3F5",
"wX c #D4E9F7",
"eX c #DCEBF7",
"rX c #D7EEFB",
"tX c #D7F1FE",
"yX c #E1EDF7",
"uX c #E6EFF8",
"iX c #E5F1FA",
"pX c #ECF4FC",
"aX c #ECF9FF",
"sX c #F0F7FF",
"dX c #F4FAFF",
"fX c #FEFEFF",
"gX c #E7EAE8",
"hX c #E5DAC1",
/* pixels */
"                                                                                                ",
"                                                                                                ",
"                                      b.S.A.S.N.N.b.b.b.d.                                      ",
"                                  v.N.S.J._.}.}.|.[.R.C.b.m.p.                                  ",
"                              s.v.N.U.'..X.XXXoXoXoXoXXX[.Z.v.i.                                ",
"                            i.s.N.J.`.'.}.}.}..XXXXXXXXX}.E.B.s.:.                              ",
"                            i.s.B.C.K.T.`.`.'.'.}.}.}.}.'.`.J.v.i.                              ",
"                            i.s.M.B.D.J.Y.Y.T.T.`.`.`.T.).Y.L.M.s.@.                            ",
"                            i.s.v.B.C.J.K.Y.Y.T.T.).T.T.T.T.L.B.s.=.                            ",
"                            i.s.v.B.B.J.K.Y.T.T.).).T.Y.Y.Y.L.C.s.e.X                           ",
"                            i.s.v.B.C.J.L.Y.).`.R.z.T.Y.Y.Y.L.C.d.i.+                           ",
"                            i.s.s.M.B.J.Y.T.).`.6.# I.T.T.T.K.C.d.i.O                           ",
"                            i.i.s.B.Z.J.).`.`.'.5 # 8.`.`.T.K.B.v.i.$                           ",
"                            r.p.v.v.& &.`.`.`.'.,.o 6.`.`.T.L.B.v.i.<                           ",
"                            r.i.s.h.# 6 `.`.'.'.7.o z.'.`.).L.C.v.i.<                           ",
"                            r.i.v.h.o 6 '.}..X.X}.x.'.'.`.).Y.D.v.i.$                           ",
"                            r.i.v.Z.& 8.}.OX#XoXXX.X}.}.'.`.).J.v.i.$                           ",
"                            r.i.v.F.E.~.` L { O.{.XX.X}.'.`.`.K.v.i.$                           ",
"                            r.i.v.U.~.h z B U ..[ *X{..X}.'.'.L.m.i.$                           ",
"                            r.p.Z.w.g x b Y ~ ~ ~ } ~ O.{.}.'.Y.m.i.$                           ",
"                            u.h.( b H H H R ~ ~ | } } ! [ {.}.Y.v.i.%                           ",
"                            t.p b H Y T ^ ! ~ ......} ! ^  .OXY.v.i.,                           ",
"                            : b C H Y T ^ ~ | o.o.| ~ ^ R Q *XY.M.i.1                           ",
"                            j E J Y Y R ! } X.+.X.~ ! K g t %XY.B.i.2                           ",
"                            0 b H J H K ! | +.X.} ^ n y m I OXY.B.p.1                           ",
"                            5 0 u n Z H R ..X.} S y z z z q.T.J.B.s.3 .                         ",
"                            i.5 a y y n B U S u z M u i j.J.K.J.C.s.e..                         ",
"                            p.r.-.7 t n B m N P M y 9 f.C.L.K.J.D.v.s.1                         ",
"                            n.u.3.;.5 a y v Z C y <.i.v.D.L.K.K.J.C.d.:.                        ",
"                          N.N.s.r.3.2.-.5 8 / 8 8.i.v.B.J.L.L.K.J.J.m.s.4                       ",
"                          A.N.B.s.i.u.r.u.u.i.i.p.v.B.D.L.Y.L.L.K.J.D.d.r.                      ",
"                        A.A.U.J.B.v.s.s.s.s.s.v.M.C.J.L.Y.Y.Y.Y.L.L.J.B.v.=.                    ",
"                        G.J.'.Y.D.B.B.C.C.Z.J.U.T.T.).`.`.).).Y.L.K.K.K.N.v.5.                  ",
"                      A.G.'.'.T.Y.U.K.Y.`.'. X+X+X@X@X+X X'.`.).).L.K.L.Y.k.m.p.                ",
"                    A.G.Y.'.'.`.`.T.|.:XtXaXfXfXfXfXfXfXsXiX5X+X`.T.J.J.Y.`.Z.m.e.              ",
"                  A.A.P.Y.`.'.'.'.@XiXfXfXfXfXfXfXfXfXsXsXfXsXsXqX^.D.C.J.`.'.l.d.              ",
"                N.A.P.Y.).Y.`.}.:XiXfXfXfXfXfXfXfXfXfXfXfXsXsXiXsXrXQ.B.B.Y.`.'.l.y.            ",
"                N.G.`.'.).K.`.@XiXsXsXfXfXfXfXfXfXfXfXfXfXfXsXsXiXiXqXZ.v.C.Y.'.[.y.y.          ",
"              v.S.Y..X}.J.J.'.iXaXsXfXfXfXfXfXfXfXfXfXfXfXfXfXsXsXiXiX>Xs.v.J.T.}._.l.k.        ",
"            s.v.J.'.XX}.Z.D.:XiXsXsXfXfXfXfXfXfXfXfXfXfXfXfXfXfXsXsXiXiX!.3.M.K.`.}.'.k.m.      ",
"            p.b.K.'.oX}.B.C.eXiXsXfXfXfXfXfXfXfXfXfXfXfXfXfXfXfXfXsXiXiX1X1.i.J.T.}.}.'.d.5.    ",
"            p.B.K.}.oX.XB.^.iXiXsXfXfXfXfXfXfXfXfXfXfXfXfXfXfXfXfXsXiXiXuXx.M.E.|.}.}.[.p.%.    ",
"          r.s.B.J.'.oX.XC.>XiXiXsXfXfXfXfXfXfXfXfXfXfXfXfXfXfXfXfXsXiXiXiX/.U.|.}.}.'.Z.s.,     ",
"          3.n.B.D.T.XXXXQ.1XiXiXsXfXfXfXfXfXfXfXfXfXfXfXfXfXfXfXsXsXiXiXqXI.E.'.'.'.U.v.i.$     ",
"          3.v.B.C.J.}.oX}.qXiXiXsXsXfXfXfXfXfXfXfXfXfXfXfXfXfXsXsXiXiXiX^.I.Y.T.T.F.M.r.i.1     ",
"        2.3.s.B.B.D.Y. XXX@XiXiXiXsXfXfXfXfXfXfXfXfXfXfXfXfXsXsXiXiXiX>XZ.F.J.D.M.s.3.1.i.3     ",
"        2.2.r.B.B.B.J.`.XX}.4XiXiXsXsXfXfXfXfXfXfXfXfXfXsXsXiXiX4X#XOXI.v.B.v.s.e.*.;.r.u.$.    ",
"        2.2.3.s.z.` ) q.`.}. X4XiXsXsXsXfXfXfXfXfXfXsXsXsXiXiX4XXXXX'.Z.p.s.t.*.#.*.2.u.u.*..   ",
"          =.f _ ' [ | ] (.).'.'.@XtXiXsXsXfXfXfXfXfXsXsXiXiX7XXX X X XW.0.` D ' / ;.r.u.r.;.X   ",
"          g [ { [ [ | } ) Z.Y.`.`.|.4XiXsXsXsXsXsXsXsXiXiXhXD W.Z.M.U.7.V { X.X.Y 0.r.i.r.;.X   ",
"          k H L K [ | | T 7.B.J.Y.T.).'.@X5XsXsXsXsXiXiXiX=XD j.s.p.v.f N R Q { Y 6.i.i.r.>..   ",
"        j k Z Z F P Q } ! _ i.s.B.D.U.Y.Y.K.4XiXiXiXiXiXiXhXP V f d p u m K { Q D t.i.i.3.$..   ",
"      l E Z Z J Z Z H ! ~ L -Xx.s.v.B.C.C.I.5XiXiXiXiXiXiXgXU P m c c x M P R T _ i.i.u.3.4 .   ",
"      l Y H H H H Z J Y ! Y &X1X3X#X~.!./.qXyXiXiXiXiXiXiXyX] { P N v m N H R K 0.i.i.r.2., .   ",
"      r k H H H H Z Z H Y T ' 2X1XqX0XwXwXeXeXeXyXyXyXyXyXeX=X| R F B m N L T D t.i.i.r.2.O .   ",
"        e l P H L A C Z H T P $X<X1X1X0XwXwXwXwXrXeXeXeXwX0X&X{ R H A N N P P f u.i.r.3.*.. .   ",
"          w b H P Z b C C H Y ( /.2X<X<X9X8X0X0X0X0X0X8X8X<X$XR Y F A N N P D -.r.u.r.2.< .     ",
"            0 j H H b v v C K F 8.!.,X2X<X<X<X1X1X8X8X1X<X2X6XF H N N N N L / ;.r.3.2.$.. .     ",
"              ; s E b v x v Z H f r.g.~.-X;X,X,X,X,X,X,X;X;Xq.N N m N M m N <.2.2.3.2.% . .     ",
"                = w c c x x v C V 2.3.r.i.i.a.g.g.g.f.a.i.r.-.n m m m m m h :.;.2.1.@.. .       ",
"                  @ w r s x M H F 9.3.3.2.3.r.r.r.r.r.r.r.r.:.h m A N v z 8 >.2.1.$.X .         ",
"                    o ; e c L Q H / 2.2.2.2.2.3.3.r.3.3.2.2.>.p A Y F c w &.2.;.@.X . .         ",
"                        - e B D v : 2.1.2.1.1.1.1.2.2.2.1.1.>.w S { F e > #.2 O . . .           ",
"                          - w r w > 4 @.$.*.$.#.#.#.#.#.3 3 , w r b s q @ . . . . .             ",
"                            @ = @ . . . . . . . . . . . . . . = w e q ; . . .                   ",
"                                . . .       . . . . . . . .     o @ o . .                       ",
"                                                                    . .                         ",
"                                                                                                "
};
